<svg xmlns="http://www.w3.org/2000/svg" width="1280" height="720" viewBox="0 0 1280 720" fill="none">
  <rect width="1280" height="720" fill="#FAF9F7"/>
  <rect x="280" y="40" width="720" height="640" rx="24" fill="#FFFFFF" stroke="#E8E2DC"/>
  <rect x="324" y="84" width="68" height="10" rx="4" fill="#E76F51"/>
  <rect x="404" y="79" width="120" height="18" rx="6" fill="#2A2522"/>
  <rect x="930" y="76" width="24" height="24" rx="8" fill="#F3EEEA"/>

  <rect x="324" y="130" width="632" height="120" rx="16" fill="#FAF6F3" stroke="#E8E2DC"/>
  <rect x="348" y="154" width="180" height="12" rx="6" fill="#4A413D"/>
  <rect x="348" y="179" width="140" height="10" rx="5" fill="#9B8F88"/>
  <rect x="776" y="152" width="156" height="40" rx="12" fill="#E76F51"/>
  <rect x="812" y="166" width="80" height="12" rx="6" fill="#FFFFFF"/>

  <rect x="324" y="272" width="632" height="72" rx="14" fill="#FFFFFF" stroke="#E8E2DC"/>
  <rect x="348" y="297" width="210" height="10" rx="5" fill="#4A413D"/>
  <rect x="348" y="315" width="120" height="8" rx="4" fill="#9B8F88"/>
  <rect x="872" y="296" width="60" height="22" rx="11" fill="#FDE6DF"/>

  <rect x="324" y="358" width="632" height="72" rx="14" fill="#FFFFFF" stroke="#E8E2DC"/>
  <rect x="348" y="383" width="170" height="10" rx="5" fill="#4A413D"/>
  <rect x="348" y="401" width="154" height="8" rx="4" fill="#9B8F88"/>
  <rect x="874" y="382" width="58" height="22" rx="11" fill="#EAF3FF"/>

  <rect x="324" y="444" width="632" height="72" rx="14" fill="#FFFFFF" stroke="#E8E2DC"/>
  <rect x="348" y="469" width="204" height="10" rx="5" fill="#4A413D"/>
  <rect x="348" y="487" width="136" height="8" rx="4" fill="#9B8F88"/>
  <rect x="878" y="468" width="54" height="22" rx="11" fill="#EEF8EF"/>

  <rect x="420" y="600" width="440" height="56" rx="18" fill="#FFFFFF" stroke="#E8E2DC"/>
  <rect x="448" y="622" width="22" height="12" rx="6" fill="#E76F51"/>
  <rect x="538" y="622" width="22" height="12" rx="6" fill="#C8BDB7"/>
  <rect x="628" y="622" width="22" height="12" rx="6" fill="#C8BDB7"/>
  <rect x="718" y="622" width="22" height="12" rx="6" fill="#C8BDB7"/>
</svg>
